# xmcd
#
# Track frame offsets: 
#        150
#        450
#        23524
#        47411
#        84221
#        102779
#        146916
#        169824
#        192291
#        192591
#        214950
#
# Disc length: 3221 seconds
#
# Revision: 0
# Processed by: cddbd v1.5.2PL0 Copyright (c) Steve Scherf et al.
# Submitted via: ExactAudioCopy v1.3
#
DISCID=8a0c930b
DTITLE=Rick Derringer - Back To The Blues
DYEAR=1993
DGENRE=Blues Rock
TTITLE0=Trouble In Paradise
TTITLE1=Blue Suede Blues
TTITLE2=Blues All Night Long
TTITLE3=Meantown Blues
TTITLE4=Sorry For Your Heartache
TTITLE5=Sink Or Swim
TTITLE6=Diamond
TTITLE7=Crybaby
TTITLE8=Unsolved Mystery
TTITLE9=Blue Velvet
TTITLE10=Time To Go
EXTD=
EXTT0=
EXTT1=
EXTT2=
EXTT3=
EXTT4=
EXTT5=
EXTT6=
EXTT7=
EXTT8=
EXTT9=
EXTT10=
PLAYORDER=
